<?xml version="1.0" standalone="no"?><!DOCTYPE svg PUBLIC "-//W3C//DTD SVG 1.1//EN" "http://www.w3.org/Graphics/SVG/1.1/DTD/svg11.dtd"><svg t="1762833542854" class="icon" viewBox="0 0 1024 1024" version="1.1" xmlns="http://www.w3.org/2000/svg" p-id="2801" xmlns:xlink="http://www.w3.org/1999/xlink" width="200" height="200"><path d="M513.462857 211.382857v-27.062857l5.485714-21.577143 16.091429-16.457143 16.091429-10.971428h32.548571l10.971429 10.971428 16.091428 10.971429v16.091428l10.971429 16.457143v10.971429l-16.091429 10.971428v10.971429l-5.485714 10.971429h43.52v-11.702858l10.971428 10.971429h162.377143l10.971429-16.091429v21.577143h10.971428v10.971429H914.285714v10.971428h-75.702857l-21.577143-5.485714v10.971429h-75.702857v10.971428l-16.822857 4.754286v27.062857l-5.485714 32.548572-16.091429 38.034285-27.062857 10.971429-43.52-16.091429-27.062857-5.485714-5.485714 5.485714-5.485715 10.971429 10.971429 5.485714 10.971428 10.971429v70.582857l-10.971428 16.091428h-32.182857l5.485714 16.091429 38.034286 48.64 38.034285 81.188571v21.577143l-5.485714 167.862857 10.971429 21.577143 21.577143 10.971429 21.577142 10.971428 10.971429 10.971429-10.971429 5.485714H654.628571L616.228571 877.714286h-27.062857l5.485715-27.062857 10.971428-21.577143 10.971429-10.971429-21.577143-54.125714v-97.645714l-16.091429-16.091429-21.577143-10.971429-21.577142-27.062857-16.091429-16.091428-16.091429-16.091429-6.582857 5.12-10.971428 27.062857-10.605715 21.577143-5.485714 21.577143-10.971428 16.091429-16.091429 21.577142-10.971429 10.971429v21.577143l-10.971428 27.062857s0 5.485714-10.971429 27.062857-27.062857 32.548571-27.062857 32.548572l-5.485714 16.091428V877.714286l5.485714 10.971428-5.485714 10.971429-43.52-5.485714-4.754286-10.971429v-21.577143l16.091429-27.062857V769.462857l10.971428-38.034286 27.062857-43.52 16.091429-27.062857V552.228571l10.971429-38.034285-5.485715-48.64 5.485715-21.577143 5.485714-5.12 5.485714-10.971429-21.577143-10.971428v-21.577143l5.485715-48.64 27.062857-5.485714 5.485714-59.611429 10.971429-38.034286 10.971428-16.091428 48.64-10.971429h5.485714v-5.12zM141.165714 441.782857h208.822857v-15.725714l-5.12-10.605714-20.845714-15.725715-15.725714-10.24H120.32l-21.211429 10.24-10.24 5.485715-10.605714 10.24v5.485714l-5.12 15.36v182.857143l15.725714 15.725714 20.845715 10.605714H308.297143l25.965714-15.725714 15.725714-10.605714v-31.085715l-214.308571-5.485714z" fill="#ffffff" p-id="2802"></path><path d="M757.394286 436.297143h219.428571l-5.12-15.36h-5.12l-5.12-10.605714-10.605714-10.605715-10.605714-5.12-10.24-5.12h-193.462858l-15.725714 5.12-15.36 10.605715-10.605714 15.725714V504.32l5.12 15.725714 10.605714 10.605715 10.24 10.24h198.582857v52.297142H694.857143v10.605715l5.12 10.24 5.485714 10.605714 10.24 10.24 10.605714 10.605714h203.702858l31.451428-15.725714 10.24-15.725714 5.12-15.725715v-73.142857l-15.36-20.845714-10.605714-10.24-5.12-5.485714h-188.342857z" fill="#ffffff" p-id="2803"></path></svg>