<svg t="1713520000000" class="icon" viewBox="0 0 1024 1024" version="1.1" xmlns="http://www.w3.org/2000/svg" xmlns:xlink="http://www.w3.org/1999/xlink" width="200" height="200"><path d="M725.6 115.2L512 348.8 384 220.8l-57.6 57.6L384 336l128 128L640 336l57.6-57.6L640 220.8 725.6 115.2zM128 672v64h768v-64H128zM576 800H448v192h128V800zM320 864h-64v128h64V864zM128 480l128 128L384 480l57.6-57.6L384 364.8 512 236.8 668.8 393.6 627.2 435.2 512 320 384 448 320 544v128h192V544L640 416 752 300.8l41.6 41.6L640 496l-128 128v96h64v-64l128-128L640 592l-57.6 57.6L640 707.2 896 451.2 852.8 408l-256 256-57.6 57.6L896 384l41.6-41.6L896 300.8 640 57.6 300.8 396.8 243.2 454.4 166.4 531.2l-38.4-38.4z" p-id="12345"></path></svg>
